<mxfile host="Electron" modified="2023-07-18T06:13:06.025Z" agent="Mozilla/5.0 (X11; Linux x86_64) AppleWebKit/537.36 (KHTML, like Gecko) draw.io/21.6.1 Chrome/112.0.5615.204 Electron/24.6.1 Safari/537.36" etag="pKGaRpeQNJNnOoempEFs" version="21.6.1" type="device">
  <diagram name="Page-1" id="VEplSq2w7WTarlV4HEIU">
    <mxGraphModel dx="1362" dy="843" grid="1" gridSize="10" guides="1" tooltips="1" connect="1" arrows="1" fold="1" page="1" pageScale="1" pageWidth="1654" pageHeight="1169" math="0" shadow="0">
      <root>
        <mxCell id="0" />
        <mxCell id="1" parent="0" />
        <mxCell id="qhDbdmxh032ssYRVy_8H-1" value="site 1" style="rounded=0;whiteSpace=wrap;html=1;fontSize=32;" vertex="1" parent="1">
          <mxGeometry x="500" y="130" width="370" height="70" as="geometry" />
        </mxCell>
        <mxCell id="qhDbdmxh032ssYRVy_8H-2" value="site 2" style="rounded=0;whiteSpace=wrap;html=1;fontSize=32;" vertex="1" parent="1">
          <mxGeometry x="500" y="210" width="370" height="70" as="geometry" />
        </mxCell>
        <mxCell id="qhDbdmxh032ssYRVy_8H-3" value="site 3" style="rounded=0;whiteSpace=wrap;html=1;fontSize=32;" vertex="1" parent="1">
          <mxGeometry x="500" y="290" width="370" height="70" as="geometry" />
        </mxCell>
        <mxCell id="qhDbdmxh032ssYRVy_8H-4" value="crawler [collect page]&lt;br&gt;spyder [collect data]" style="rounded=0;whiteSpace=wrap;html=1;fontSize=32;" vertex="1" parent="1">
          <mxGeometry x="60" y="210" width="370" height="70" as="geometry" />
        </mxCell>
        <mxCell id="qhDbdmxh032ssYRVy_8H-5" value="" style="endArrow=classic;html=1;rounded=0;" edge="1" parent="1">
          <mxGeometry width="50" height="50" relative="1" as="geometry">
            <mxPoint x="190" y="970" as="sourcePoint" />
            <mxPoint x="830" y="970" as="targetPoint" />
          </mxGeometry>
        </mxCell>
        <mxCell id="qhDbdmxh032ssYRVy_8H-6" value="price" style="text;html=1;strokeColor=none;fillColor=none;align=center;verticalAlign=middle;whiteSpace=wrap;rounded=0;fontSize=32;" vertex="1" parent="1">
          <mxGeometry x="820" y="1030" width="210" height="50" as="geometry" />
        </mxCell>
        <mxCell id="qhDbdmxh032ssYRVy_8H-7" value="" style="endArrow=classic;html=1;rounded=0;" edge="1" parent="1">
          <mxGeometry width="50" height="50" relative="1" as="geometry">
            <mxPoint x="190" y="970" as="sourcePoint" />
            <mxPoint x="190" y="600" as="targetPoint" />
          </mxGeometry>
        </mxCell>
        <mxCell id="qhDbdmxh032ssYRVy_8H-8" value="sold" style="text;html=1;strokeColor=none;fillColor=none;align=center;verticalAlign=middle;whiteSpace=wrap;rounded=0;fontSize=32;" vertex="1" parent="1">
          <mxGeometry x="170" y="535" width="210" height="50" as="geometry" />
        </mxCell>
        <mxCell id="qhDbdmxh032ssYRVy_8H-9" value="" style="endArrow=none;html=1;rounded=0;fillColor=#f8cecc;strokeColor=#b85450;" edge="1" parent="1">
          <mxGeometry width="50" height="50" relative="1" as="geometry">
            <mxPoint x="240" y="970" as="sourcePoint" />
            <mxPoint x="810" y="970" as="targetPoint" />
            <Array as="points">
              <mxPoint x="250" y="730" />
              <mxPoint x="300" y="670" />
              <mxPoint x="370" y="660" />
              <mxPoint x="440" y="790" />
              <mxPoint x="670" y="910" />
            </Array>
          </mxGeometry>
        </mxCell>
        <mxCell id="qhDbdmxh032ssYRVy_8H-10" value="1000" style="text;html=1;strokeColor=none;fillColor=none;align=center;verticalAlign=middle;whiteSpace=wrap;rounded=0;fontSize=32;" vertex="1" parent="1">
          <mxGeometry x="730" y="980" width="110" height="50" as="geometry" />
        </mxCell>
        <mxCell id="qhDbdmxh032ssYRVy_8H-11" value="20" style="text;html=1;strokeColor=none;fillColor=none;align=center;verticalAlign=middle;whiteSpace=wrap;rounded=0;fontSize=32;" vertex="1" parent="1">
          <mxGeometry x="180" y="980" width="110" height="50" as="geometry" />
        </mxCell>
        <mxCell id="qhDbdmxh032ssYRVy_8H-13" style="edgeStyle=orthogonalEdgeStyle;rounded=0;orthogonalLoop=1;jettySize=auto;html=1;" edge="1" parent="1" source="qhDbdmxh032ssYRVy_8H-12">
          <mxGeometry relative="1" as="geometry">
            <mxPoint x="240" y="765" as="targetPoint" />
          </mxGeometry>
        </mxCell>
        <mxCell id="qhDbdmxh032ssYRVy_8H-14" style="edgeStyle=orthogonalEdgeStyle;rounded=0;orthogonalLoop=1;jettySize=auto;html=1;" edge="1" parent="1" source="qhDbdmxh032ssYRVy_8H-12">
          <mxGeometry relative="1" as="geometry">
            <mxPoint x="430" y="765" as="targetPoint" />
          </mxGeometry>
        </mxCell>
        <mxCell id="qhDbdmxh032ssYRVy_8H-12" value="120" style="text;html=1;strokeColor=none;fillColor=none;align=center;verticalAlign=middle;whiteSpace=wrap;rounded=0;fontSize=32;" vertex="1" parent="1">
          <mxGeometry x="280" y="740" width="110" height="50" as="geometry" />
        </mxCell>
        <mxCell id="qhDbdmxh032ssYRVy_8H-16" value="GAIN = ?&lt;br&gt;&lt;br&gt;kazanÃ§, kar, total profit" style="text;html=1;strokeColor=none;fillColor=none;align=center;verticalAlign=middle;whiteSpace=wrap;rounded=0;fontSize=32;" vertex="1" parent="1">
          <mxGeometry x="730" y="640" width="450" height="180" as="geometry" />
        </mxCell>
        <mxCell id="qhDbdmxh032ssYRVy_8H-17" value="50" style="text;html=1;strokeColor=none;fillColor=none;align=center;verticalAlign=middle;whiteSpace=wrap;rounded=0;fontSize=32;" vertex="1" parent="1">
          <mxGeometry x="70" y="900" width="110" height="50" as="geometry" />
        </mxCell>
        <mxCell id="qhDbdmxh032ssYRVy_8H-18" value="100" style="text;html=1;strokeColor=none;fillColor=none;align=center;verticalAlign=middle;whiteSpace=wrap;rounded=0;fontSize=32;" vertex="1" parent="1">
          <mxGeometry x="70" y="810" width="110" height="50" as="geometry" />
        </mxCell>
        <mxCell id="qhDbdmxh032ssYRVy_8H-19" value="150" style="text;html=1;strokeColor=none;fillColor=none;align=center;verticalAlign=middle;whiteSpace=wrap;rounded=0;fontSize=32;" vertex="1" parent="1">
          <mxGeometry x="60" y="720" width="110" height="50" as="geometry" />
        </mxCell>
        <mxCell id="qhDbdmxh032ssYRVy_8H-20" value="200" style="text;html=1;strokeColor=none;fillColor=none;align=center;verticalAlign=middle;whiteSpace=wrap;rounded=0;fontSize=32;" vertex="1" parent="1">
          <mxGeometry x="70" y="630" width="110" height="50" as="geometry" />
        </mxCell>
        <mxCell id="qhDbdmxh032ssYRVy_8H-22" value="area" style="text;html=1;strokeColor=none;fillColor=none;align=center;verticalAlign=middle;whiteSpace=wrap;rounded=0;fontSize=32;" vertex="1" parent="1">
          <mxGeometry x="210" y="800" width="450" height="180" as="geometry" />
        </mxCell>
        <mxCell id="qhDbdmxh032ssYRVy_8H-23" value="" style="endArrow=classic;html=1;rounded=0;" edge="1" parent="1">
          <mxGeometry width="50" height="50" relative="1" as="geometry">
            <mxPoint x="820" y="850" as="sourcePoint" />
            <mxPoint x="760" y="950" as="targetPoint" />
          </mxGeometry>
        </mxCell>
        <mxCell id="qhDbdmxh032ssYRVy_8H-24" value="1 item, 999" style="text;html=1;strokeColor=none;fillColor=none;align=center;verticalAlign=middle;whiteSpace=wrap;rounded=0;fontSize=32;" vertex="1" parent="1">
          <mxGeometry x="827" y="840" width="210" height="50" as="geometry" />
        </mxCell>
        <mxCell id="qhDbdmxh032ssYRVy_8H-27" value="GOAL = maximize( area )" style="text;html=1;strokeColor=none;fillColor=none;align=center;verticalAlign=middle;whiteSpace=wrap;rounded=0;fontSize=32;" vertex="1" parent="1">
          <mxGeometry x="150" y="1070" width="450" height="60" as="geometry" />
        </mxCell>
        <mxCell id="qhDbdmxh032ssYRVy_8H-28" value="" style="endArrow=none;html=1;rounded=0;" edge="1" parent="1">
          <mxGeometry width="50" height="50" relative="1" as="geometry">
            <mxPoint x="274.5" y="1020" as="sourcePoint" />
            <mxPoint x="274.5" y="600" as="targetPoint" />
          </mxGeometry>
        </mxCell>
        <mxCell id="qhDbdmxh032ssYRVy_8H-29" value="" style="endArrow=none;html=1;rounded=0;" edge="1" parent="1">
          <mxGeometry width="50" height="50" relative="1" as="geometry">
            <mxPoint x="370" y="1020" as="sourcePoint" />
            <mxPoint x="370" y="600" as="targetPoint" />
          </mxGeometry>
        </mxCell>
        <mxCell id="qhDbdmxh032ssYRVy_8H-30" value="" style="endArrow=classic;html=1;rounded=0;" edge="1" parent="1">
          <mxGeometry width="50" height="50" relative="1" as="geometry">
            <mxPoint x="60" y="520" as="sourcePoint" />
            <mxPoint x="270" y="700" as="targetPoint" />
          </mxGeometry>
        </mxCell>
        <mxCell id="qhDbdmxh032ssYRVy_8H-31" value="mean" style="text;html=1;strokeColor=none;fillColor=none;align=center;verticalAlign=middle;whiteSpace=wrap;rounded=0;fontSize=32;" vertex="1" parent="1">
          <mxGeometry x="20" y="450" width="210" height="50" as="geometry" />
        </mxCell>
        <mxCell id="qhDbdmxh032ssYRVy_8H-32" value="mean + iqr/3&lt;br&gt;mean * 1.3" style="text;html=1;strokeColor=none;fillColor=none;align=center;verticalAlign=middle;whiteSpace=wrap;rounded=0;fontSize=32;" vertex="1" parent="1">
          <mxGeometry x="390" y="560" width="210" height="50" as="geometry" />
        </mxCell>
      </root>
    </mxGraphModel>
  </diagram>
</mxfile>
